<?xml version="1.0" encoding="utf-8"?>
<!-- Generator: Adobe Illustrator 16.2.1, SVG Export Plug-In . SVG Version: 6.00 Build 0)  -->
<!DOCTYPE svg PUBLIC "-//W3C//DTD SVG 1.1//EN" "http://www.w3.org/Graphics/SVG/1.1/DTD/svg11.dtd">
<svg version="1.1" id="Layer_1" xmlns="http://www.w3.org/2000/svg" xmlns:xlink="http://www.w3.org/1999/xlink" x="0px" y="0px"
	 width="16px" height="12px" viewBox="0 0 16 12" enable-background="new 0 0 16 12" xml:space="preserve">
<path id="Tag_2" fill-rule="evenodd" clip-rule="evenodd" d="M15.732,5.252l-4.341-4.89C11.212,0.162,10.861,0,10.603,0H1.48
	C0.963,0,0,0.497,0,1.05v9.9C0,11.503,0.963,12,1.48,12h9.123c0.258,0,0.609-0.162,0.787-0.362l4.342-4.902
	C16.089,6.336,16.089,5.652,15.732,5.252z M8.962,6c0-1.104,0.896-2,2-2s2,0.896,2,2s-0.896,2-2,2S8.962,7.104,8.962,6z"/>
</svg>
